<svg id="icons" enable-background="new 0 0 64 64" height="512" viewBox="0 0 64 64" width="512" xmlns="http://www.w3.org/2000/svg"><path d="m1 31.498h30.994c.553 0 1-.447 1-1v-27.996c0-.553-.447-1-1-1h-30.994c-.553 0-1 .447-1 1v27.996c0 .553.447 1 1 1zm1-27.996h28.994v25.996h-28.994z"/><path d="m64 52.29-.006-17.794c0-.553-.448-1-1-1h-2.974c-.007 0-.013-.004-.02-.004s-.013.004-.02.004h-23.962c-.007 0-.013-.004-.02-.004s-.013.004-.02.004h-2.98c-.553 0-1 .447-1 1v2.986c0 .004-.002.006-.002.01s.002.006.002.01v14.988 9.008c0 .553.447 1 1 1 .011 0 .019-.006.029-.006h29.943c.011 0 .019.006.029.006.553 0 1-.447 1-1v-8.911c.003-.033.02-.063.02-.097.001-.068-.006-.136-.019-.2zm-27.146-16.794h22.289c.364 1.395 1.457 2.487 2.852 2.85l.004 10.289c-1.397.362-2.493 1.457-2.856 2.855h-22.289c-.363-1.397-1.458-2.491-2.855-2.854v-10.286c1.397-.364 2.491-1.457 2.855-2.854zm-2.856 18.996v-1.002h28.002v1.002zm28.002 2v1h-28.002v-1zm-28.002-5.721c.298.175.545.421.72.719h-.72zm28.002.719h-.722c.175-.299.422-.546.722-.72zm-28.002 8.002h28.002v1h-28.002zm27.996-23.283c-.295-.173-.54-.417-.714-.713h.714zm-27.277-.713c-.174.297-.421.543-.719.717v-.717z"/><path d="m47.996 48.49c2.756 0 4.998-2.243 4.998-5s-2.242-5-4.998-5c-2.757 0-5 2.243-5 5s2.243 5 5 5zm0-8c1.653 0 2.998 1.346 2.998 3s-1.345 3-2.998 3c-1.654 0-3-1.346-3-3s1.346-3 3-3z"/><path d="m47.998 32.498c.553 0 1-.447 1-1v-14.998c0-.553-.447-1-1-1h-10.582l.291-.291c.391-.39.391-1.023 0-1.414s-1.023-.391-1.414 0l-1.999 1.997c-.093.092-.166.203-.217.325s-.077.252-.077.383c0 .004.002.007.002.01.001.127.026.253.075.372.051.123.124.234.217.326l1.999 2.001c.195.195.451.293.707.293s.512-.098.707-.293c.391-.39.391-1.023 0-1.414l-.295-.295h9.586v13.998c0 .553.447 1 1 1z"/><path d="m27.285 51.209c.195.195.451.293.707.293s.512-.098.707-.293l1.999-1.999c.093-.092.166-.203.217-.326.102-.244.102-.52 0-.764-.051-.123-.124-.234-.217-.326l-1.999-1.999c-.391-.391-1.023-.391-1.414 0s-.391 1.023 0 1.414l.293.293h-9.584v-13.998c0-.553-.447-1-1-1s-1 .447-1 1v14.998c0 .553.447 1 1 1h10.584l-.293.293c-.39.391-.39 1.023 0 1.414z"/><path d="m27.944 24.793c.021-.066.033-.13.04-.199.003-.032.019-.061.019-.094 0-.031-.015-.059-.018-.089-.006-.067-.021-.13-.04-.195-.02-.066-.044-.128-.076-.188-.015-.027-.017-.058-.034-.083l-7.996-12.002c-.155-.233-.393-.379-.648-.426-.063-.013-.124-.001-.188-.001-.063 0-.125-.012-.188.001-.256.047-.492.192-.647.426l-3.668 5.505-1.668-2.505c-.155-.233-.392-.378-.646-.426-.063-.013-.125-.001-.188-.001s-.126-.012-.188.001c-.255.048-.491.192-.646.426l-5.998 9.002c-.019.028-.021.061-.037.09-.029.055-.051.11-.069.171-.022.071-.038.141-.044.215-.002.027-.016.051-.016.079 0 .03.015.055.017.084.007.075.021.146.044.218.019.056.038.106.064.157.032.061.069.113.113.167.041.05.084.094.135.135.026.022.041.052.07.071.036.023.076.034.113.054.032.016.062.031.095.044.113.042.229.07.346.07h.002.001 21.004.001c.116 0 .231-.027.344-.069.037-.014.068-.031.103-.049.036-.018.073-.027.107-.05.027-.019.042-.047.066-.066.055-.045.101-.092.146-.146.039-.05.073-.099.103-.153.028-.056.051-.113.07-.174zm-8.94-10.496 6.131 9.203h-12.263zm-8.535 9.203h-2.604l4.132-6.202 1.302 1.954z"/><path d="m8.001 13.498c1.654 0 3-1.346 3-3s-1.346-3-3-3-3 1.346-3 3 1.346 3 3 3zm0-4c.552 0 1 .448 1 1s-.448 1-1 1-1-.448-1-1 .448-1 1-1z"/></svg>