<?xml version="1.0"?>
<svg xmlns="http://www.w3.org/2000/svg" xmlns:xlink="http://www.w3.org/1999/xlink" xmlns:svgjs="http://svgjs.com/svgjs" version="1.1" width="512" height="512" x="0" y="0" viewBox="0 0 512 512" style="enable-background:new 0 0 512 512" xml:space="preserve" class=""><g><path xmlns="http://www.w3.org/2000/svg" d="m426.178 385.917h-20.555v-28.673a6 6 0 0 0 -12 0v34.673a6 6 0 0 0 6 6h26.555a6 6 0 0 0 0-12z" fill="#333333" data-original="#000000" style=""/><path xmlns="http://www.w3.org/2000/svg" d="m402.224 311.6a77.544 77.544 0 1 0 77.62 77.544 77.67 77.67 0 0 0 -77.62-77.544zm56.909 84.25h8.37a65.22 65.22 0 0 1 -15.477 35.9l-5.516-5.507a6 6 0 1 0 -8.479 8.492l5.386 5.377a65.325 65.325 0 0 1 -35.857 14.34v-7.129a6 6 0 0 0 -12 0v7.028a65.364 65.364 0 0 1 -35.26-14.833l4.791-4.784a6 6 0 1 0 -8.477-8.492l-4.805 4.8a65.221 65.221 0 0 1 -14.861-35.191h7.042a6 6 0 0 0 0-12h-7.15a65.166 65.166 0 0 1 14.336-35.823l5.438 5.428a6 6 0 1 0 8.477-8.492l-5.549-5.539a65.376 65.376 0 0 1 36.021-15.488v8.439a6 6 0 0 0 12 0v-8.54a65.354 65.354 0 0 1 36.637 14.97l-6.166 6.155a6 6 0 0 0 8.479 8.492l6.172-6.162a65.2 65.2 0 0 1 14.93 36.557h-8.479a6 6 0 0 0 0 12z" fill="#333333" data-original="#000000" style=""/><path xmlns="http://www.w3.org/2000/svg" d="m259.078 268.141a6 6 0 0 0 9.2-7.705c-.708-.852-7.22-8.345-17.753-9.079-7.3-.508-14.421 2.343-21.159 8.476a6 6 0 1 0 8.077 8.875c4.184-3.81 8.267-5.626 12.146-5.387 5.492.333 9.353 4.664 9.489 4.82z" fill="#333333" data-original="#000000" style=""/><path xmlns="http://www.w3.org/2000/svg" d="m188.145 260.436c-.708-.852-7.22-8.345-17.752-9.079-7.3-.51-14.421 2.343-21.16 8.476a6 6 0 1 0 8.077 8.875c4.185-3.81 8.278-5.621 12.146-5.387 5.5.333 9.36 4.673 9.489 4.82a6 6 0 0 0 9.2-7.705z" fill="#333333" data-original="#000000" style=""/><path xmlns="http://www.w3.org/2000/svg" d="m219.558 322.392c-4.185 3.808-8.285 5.619-12.146 5.386-5.493-.333-9.353-4.664-9.489-4.819a6 6 0 0 0 -9.2 7.7c.708.853 7.22 8.346 17.752 9.079q.831.058 1.657.058c6.722 0 13.275-2.865 19.5-8.533a6 6 0 1 0 -8.077-8.875z" fill="#333333" data-original="#000000" style=""/><path xmlns="http://www.w3.org/2000/svg" d="m153.944 298.372a15.293 15.293 0 1 0 15.283 15.293 15.3 15.3 0 0 0 -15.283-15.293zm0 18.586a3.293 3.293 0 1 1 3.283-3.293 3.292 3.292 0 0 1 -3.283 3.293z" fill="#333333" data-original="#000000" style=""/><path xmlns="http://www.w3.org/2000/svg" d="m271.473 298.372a15.293 15.293 0 1 0 15.282 15.293 15.305 15.305 0 0 0 -15.282-15.293zm0 18.586a3.293 3.293 0 1 1 3.282-3.293 3.292 3.292 0 0 1 -3.282 3.293z" fill="#333333" data-original="#000000" style=""/><path xmlns="http://www.w3.org/2000/svg" d="m208.951 179.492c-56.928 0-103.243 46.24-103.243 103.076s46.315 103.077 103.243 103.077 103.243-46.245 103.243-103.077-46.315-103.076-103.243-103.076zm0 194.153a91.067 91.067 0 0 1 -14.307-181.031v21.145a23.33 23.33 0 0 0 23.3 23.3 19.408 19.408 0 0 0 0-38.816 6 6 0 0 0 0 12 7.408 7.408 0 0 1 0 14.816 11.317 11.317 0 0 1 -11.3-11.3v-22.238q1.149-.028 2.307-.029a91.077 91.077 0 1 1 0 182.153z" fill="#333333" data-original="#000000" style=""/><path xmlns="http://www.w3.org/2000/svg" d="m41.512 168.649a6 6 0 0 0 -6 6v2.362a6 6 0 0 0 12 0v-2.362a6 6 0 0 0 -6-6z" fill="#333333" data-original="#000000" style=""/><path xmlns="http://www.w3.org/2000/svg" d="m41.512 188.211a6 6 0 0 0 -6 6v60.7a6 6 0 0 0 12 0v-60.7a6 6 0 0 0 -6-6z" fill="#333333" data-original="#000000" style=""/><path xmlns="http://www.w3.org/2000/svg" d="m407.9 289.63v-178.949a42.118 42.118 0 0 0 -42.043-42.081h-16.915v-13.558a31.9 31.9 0 0 0 -31.861-31.861h-3.014a31.9 31.9 0 0 0 -31.862 31.861v13.558h-146.513v-13.558a31.9 31.9 0 0 0 -31.861-31.861h-3.014a31.9 31.9 0 0 0 -31.862 31.861v13.558h-16.914a42.117 42.117 0 0 0 -42.041 42.079v286.541a42.12 42.12 0 0 0 42.045 42.08h263.988a99.732 99.732 0 1 0 91.867-149.67zm-113.695-234.588a19.884 19.884 0 0 1 19.862-19.861h3.014a19.883 19.883 0 0 1 19.861 19.861v25.47a19.883 19.883 0 0 1 -19.861 19.861h-3.014a19.884 19.884 0 0 1 -19.862-19.861zm-213.25 0a19.884 19.884 0 0 1 19.862-19.861h3.014a19.883 19.883 0 0 1 19.861 19.861v25.47a19.883 19.883 0 0 1 -19.861 19.861h-3.014a19.884 19.884 0 0 1 -19.862-19.861zm-58.955 55.634a30.1 30.1 0 0 1 30.045-30.076h16.912a31.9 31.9 0 0 0 31.86 31.776h3.014a31.9 31.9 0 0 0 31.859-31.776h146.517a31.9 31.9 0 0 0 31.86 31.776h3.014a31.9 31.9 0 0 0 31.859-31.776h16.913a30.1 30.1 0 0 1 30.047 30.079v30.763h-373.9zm30.049 316.624a30.1 30.1 0 0 1 -30.049-30.078v-243.78h373.9v136.229a99.641 99.641 0 0 0 -85.845 137.629zm350.175 49.515a87.677 87.677 0 1 1 87.776-87.673 87.826 87.826 0 0 1 -87.776 87.677z" fill="#333333" data-original="#000000" style=""/></g></svg>
