<svg id="Arrow-left_stroke_" data-name="Arrow-left(stroke)" xmlns="http://www.w3.org/2000/svg" width="31" height="31" viewBox="0 0 31 31">
  <path id="Vector" d="M20,6.5a.9.9,0,0,1-.9.9H3.075l4.093,4.1a.911.911,0,0,1-.633,1.552.858.858,0,0,1-.633-.27L.271,7.155a.867.867,0,0,1,0-1.26L5.9.27a.9.9,0,0,1,1.289,0,.893.893,0,0,1,0,1.283L3.075,5.6H19.1A.9.9,0,0,1,20,6.5Z" transform="translate(0 6.5)" fill="#fff"/>
  <g id="Component_1274_14" data-name="Component 1274 – 14" transform="translate(0)">
    <circle id="Ellipse_2922" data-name="Ellipse 2922" cx="15.5" cy="15.5" r="15.5" fill="#fff"/>
    <path id="_7f79675987c337278df8407b0e6f56c4" data-name="7f79675987c337278df8407b0e6f56c4" d="M16.5,11.5l-4,4-4-4" transform="translate(29 3) rotate(90)" fill="none" stroke="#191632" stroke-linecap="round" stroke-linejoin="round" stroke-miterlimit="10" stroke-width="1"/>
  </g>
</svg>
