<svg id="Capa_1" enable-background="new 0 0 512 512" height="512" viewBox="0 0 512 512" width="512" xmlns="http://www.w3.org/2000/svg"><g id="XMLID_573_"><path id="XMLID_607_" d="m405.001 225.701v-30.105h-50.873c15.563-20.886 24.299-46.474 24.299-73.169 0-67.507-54.921-122.427-122.427-122.427s-122.427 54.92-122.427 122.427c0 26.694 8.736 52.283 24.299 73.169h-50.873v30.105h20.278v256.194h-20.278v30.105h298.002v-30.105h-20.278v-256.194zm-241.322-103.274c0-50.906 41.415-92.321 92.321-92.321s92.321 41.415 92.321 92.321c0 28.706-13.392 55.722-36.031 73.169h-112.581c-22.638-17.448-36.03-44.464-36.03-73.169zm-6.297 359.468v-119.753h31.338v36.624h134.56v-36.624h31.338v119.753zm61.443-113.233v-43.144h74.349v43.144zm135.793-36.625h-31.338v-36.624h-134.56v36.624h-31.338v-106.336h197.236z"/><path id="XMLID_619_" d="m256 70.132c-28.835 0-52.295 23.459-52.295 52.295s23.46 52.295 52.295 52.295 52.295-23.459 52.295-52.295-23.46-52.295-52.295-52.295zm0 74.484c-12.235 0-22.19-9.954-22.19-22.19s9.955-22.19 22.19-22.19 22.19 9.954 22.19 22.19-9.955 22.19-22.19 22.19z"/></g></svg>