<svg id="solid_line_1_" height="512" viewBox="0 0 64 64" width="512" xmlns="http://www.w3.org/2000/svg"><path d="m59 4h-6c0-.811-.316-1.566-.874-2.108-.561-.575-1.315-.892-2.126-.892-1.654 0-3 1.346-3 3h-12c0-.811-.316-1.566-.874-2.108-.561-.575-1.315-.892-2.126-.892-1.654 0-3 1.346-3 3h-12c0-.811-.316-1.566-.874-2.108-.561-.575-1.315-.892-2.126-.892-1.654 0-3 1.346-3 3h-6c-2.757 0-5 2.243-5 5v49c0 2.757 2.243 5 5 5h46c.25 0 .491-.094.676-.263l12-11c.207-.189.324-.457.324-.737v-42c0-2.757-2.243-5-5-5zm-6.057 6.569c.021.143.057.284.057.431 0 1.654-1.346 3-3 3s-3-1.346-3-3c0-.145.036-.282.056-.423.113.587.395 1.121.818 1.531.561.575 1.315.892 2.126.892 1.46 0 2.676-1.048 2.943-2.431zm-18 0c.021.143.057.284.057.431 0 1.654-1.346 3-3 3s-3-1.346-3-3c0-.145.036-.282.056-.423.113.587.395 1.121.818 1.531.561.575 1.315.892 2.126.892 1.46 0 2.676-1.048 2.943-2.431zm-18 0c.021.143.057.284.057.431 0 1.654-1.346 3-3 3s-3-1.346-3-3c0-.145.036-.282.056-.423.113.587.395 1.121.818 1.531.561.575 1.315.892 2.126.892 1.46 0 2.676-1.048 2.943-2.431zm32.057-6.569c0-.551.448-1 1-1 .267 0 .513.102.713.306.184.181.287.427.287.694v6c0 .551-.448 1-1 1-.267 0-.513-.102-.713-.306-.184-.181-.287-.427-.287-.694zm-18 0c0-.551.448-1 1-1 .267 0 .513.102.713.306.184.181.287.427.287.694v6c0 .551-.448 1-1 1-.267 0-.513-.102-.713-.306-.184-.181-.287-.427-.287-.694zm-18 0c0-.551.448-1 1-1 .267 0 .513.102.713.306.184.181.287.427.287.694v6c0 .551-.448 1-1 1-.267 0-.513-.102-.713-.306-.184-.181-.287-.427-.287-.694zm-11 54v-39h60v31h-7c-2.757 0-5 2.243-5 5v6h-45c-1.654 0-3-1.346-3-3z"/><path d="m5 25c.553 0 1-.448 1-1v-2c0-.552-.447-1-1-1s-1 .448-1 1v2c0 .552.447 1 1 1z"/><path d="m5 33c.553 0 1-.448 1-1v-5c0-.552-.447-1-1-1s-1 .448-1 1v5c0 .552.447 1 1 1z"/><path d="m8 57h-1c-.552 0-1-.449-1-1v-2c0-.552-.447-1-1-1s-1 .448-1 1v2c0 1.654 1.346 3 3 3h1c.553 0 1-.448 1-1s-.447-1-1-1z"/><path d="m47.03 53.604v-15.484c0-2.001-1.628-3.63-3.63-3.63h-2.29v-4.26c0-.552-.447-1-1-1h-.97v-.702c.168-.069.331-.148.482-.251 1.048-.71 1.657-1.669 1.761-2.772.145-1.53-.709-3.229-2.537-5.052-.391-.39-1.022-.39-1.413.001-1.825 1.825-2.677 3.526-2.532 5.056.105 1.102.713 2.06 1.759 2.769.151.102.313.182.48.25v.702h-.97c-.553 0-1 .448-1 1v4.26h-1.94v-4.26c0-.552-.447-1-1-1h-.97v-.703c.167-.069.329-.15.478-.254 1.045-.711 1.652-1.668 1.757-2.77.146-1.529-.705-3.228-2.527-5.05-.391-.391-1.022-.391-1.413-.001-1.827 1.822-2.681 3.522-2.537 5.052.104 1.104.714 2.062 1.763 2.774.151.102.313.182.48.25v.702h-.981c-.553 0-1 .448-1 1v4.26h-1.94v-4.26c0-.552-.447-1-1-1h-.97v-.701c.172-.07.338-.151.487-.255 1.041-.709 1.647-1.665 1.752-2.765.145-1.53-.707-3.231-2.532-5.056-.391-.391-1.022-.391-1.413-.001-1.828 1.823-2.682 3.522-2.537 5.052.104 1.104.713 2.062 1.747 2.763.152.107.321.19.496.261v.701h-.97c-.553 0-1 .448-1 1v4.26h-2.29c-2.002 0-3.63 1.628-3.63 3.63v15.484c-1.112.167-1.971 1.123-1.971 2.286 0 1.274 1.036 2.31 2.311 2.31h32.87c1.273 0 2.31-1.036 2.31-2.31 0-1.162-.858-2.119-1.97-2.286zm-30.58-9.884c1.279 0 2.319-1.041 2.319-2.32v-1.64c0-.359.281-.64.641-.64.358 0 .64.281.64.64v.98c0 .784.318 1.552.873 2.107.563.562 1.312.873 2.107.873 1.638 0 2.97-1.337 2.97-2.98v-.98c0-.359.281-.64.64-.64s.641.281.641.64v.98c0 .784.318 1.552.872 2.106.555.555 1.322.874 2.107.874 1.638 0 2.971-1.337 2.971-2.98v-.98c0-.359.281-.64.64-.64s.64.281.64.64v.98c0 .783.317 1.55.873 2.107.563.562 1.309.873 2.098.873 1.643 0 2.979-1.337 2.979-2.98v-.98c0-.359.281-.64.64-.64s.641.281.641.64v1.64c0 1.279 1.04 2.32 2.319 2.32h.971v1.62l-2.773 1.185c-.474.208-1.016.171-1.47-.107l-.886-.521c-1.049-.641-2.39-.695-3.499-.141l-1.479.74c-.457.228-1.002.227-1.455.001l-1.592-.802c-1.014-.507-2.227-.508-3.246.001l-1.587.799c-.456.227-1.001.228-1.457 0l-1.479-.74c-1.108-.554-2.448-.5-3.489.135l-.895.533c-.449.272-.998.31-1.481.097l-2.762-1.18v-1.62zm.996 4.635c1.066.471 2.306.389 3.306-.216l.898-.536c.467-.283 1.064-.308 1.562-.059l1.48.74c1.014.507 2.229.507 3.246-.001l1.587-.799c.456-.227 1-.228 1.454-.001l1.593.802c.507.254 1.064.38 1.621.38.558 0 1.115-.127 1.623-.38l1.479-.74c.496-.248 1.094-.226 1.576.067l.886.521c.996.611 2.232.694 3.294.227l1.978-.845v6.055h-29.549v-6.055zm19.724-17.125h1.94v3.26h-1.94zm-7.89 0h1.95v3.26h-1.95zm-7.88 0h1.939v3.26h-1.939z"/><path d="m17.11 52.95h4.6c.553 0 1-.448 1-1s-.447-1-1-1h-4.6c-.553 0-1 .448-1 1s.448 1 1 1z"/><path d="m24.34 52.95h1.311c.553 0 1-.448 1-1s-.447-1-1-1h-1.311c-.553 0-1 .448-1 1s.447 1 1 1z"/><path d="m54 24h5c.553 0 1-.448 1-1s-.447-1-1-1h-5c-.553 0-1 .448-1 1s.447 1 1 1z"/><path d="m51 28h8c.553 0 1-.448 1-1s-.447-1-1-1h-8c-.553 0-1 .448-1 1s.447 1 1 1z"/><path d="m53.5 30c-.827 0-1.5.673-1.5 1.5s.673 1.5 1.5 1.5 1.5-.673 1.5-1.5-.673-1.5-1.5-1.5z"/><path d="m50.003 37.417c.195.195.451.293.707.293s.512-.098.707-.293c.391-.391.391-1.023 0-1.414l-1.42-1.42c-.391-.391-1.023-.391-1.414 0s-.391 1.023 0 1.414z"/><circle cx="58" cy="37" r="3"/><circle cx="14" cy="25" r="3"/><path d="m7.5 34c-.827 0-1.5.673-1.5 1.5s.673 1.5 1.5 1.5 1.5-.673 1.5-1.5-.673-1.5-1.5-1.5z"/><path d="m12.71 32.71c.256 0 .512-.098.707-.293.391-.391.391-1.023 0-1.414l-1.42-1.42c-.391-.391-1.023-.391-1.414 0s-.391 1.023 0 1.414l1.42 1.42c.195.195.451.293.707.293z"/></svg>