<svg id="Layer_5" enable-background="new 0 0 64 64" height="512" viewBox="0 0 64 64" width="512" xmlns="http://www.w3.org/2000/svg"><path d="m14 36c-1.103 0-2-.897-2-2h-2c0 1.859 1.279 3.411 3 3.858v2.142h2v-2h3v-4c0-2.206-1.794-4-4-4-1.103 0-2-.897-2-2v-2h2c1.103 0 2 .897 2 2h2c0-1.859-1.279-3.411-3-3.858v-2.142h-2v2h-3v4c0 2.206 1.794 4 4 4 1.103 0 2 .897 2 2v2z"/><path d="m21 30h2v2h-2z"/><path d="m5 30h2v2h-2z"/><path d="m23 1v20.641c-2.338-2.249-5.507-3.641-9-3.641-7.168 0-13 5.832-13 13 0 4.212 2.023 7.951 5.138 10.328-3.365 1.615-5.138 3.556-5.138 5.672v6c0 6.495 15.972 10 31 10s31-3.505 31-10v-8-1-43zm38 2v40h-36v-5.104c1.26-2.002 2-4.362 2-6.896s-.74-4.894-2-6.896v-21.104zm-58 28c0-6.065 4.935-11 11-11s11 4.935 11 11-4.935 11-11 11-11-4.935-11-11zm11 13c3.493 0 6.662-1.392 9-3.641v4.641h32.256c-3.524 2.145-12.037 4-23.256 4-15.244 0-24.676-3.382-24.972-5.878.364-.174.751-.344 1.159-.511 1.752.881 3.722 1.389 5.813 1.389zm-11 9v-2.277c1.011.875 2.37 1.662 4 2.359v3.808c-2.573-1.22-4-2.581-4-3.89zm52 .811v3.911c-1.692.625-3.707 1.194-6 1.677v-3.993c2.178-.442 4.201-.975 6-1.595zm-8 5.973c-1.856.327-3.859.601-6 .804v-4.018c2.059-.197 4.074-.461 6-.792zm-8 .968c-1.911.137-3.914.22-6 .241v-4c1.995-.021 4.009-.106 6-.252zm-8 .24c-2.086-.02-4.089-.103-6-.241v-4.003c1.984.143 3.997.224 6 .244zm-8-.404c-2.141-.203-4.144-.477-6-.804v-3.982c1.921.326 3.937.585 6 .778zm-8-1.189c-2.293-.483-4.308-1.052-6-1.677v-3.875c1.795.617 3.82 1.145 6 1.583zm42-2.509v-3.847c1.624-.695 2.989-1.477 4-2.346v2.303c0 1.309-1.427 2.67-4 3.89zm4-9.628-.019-.003c-.55 3.738-12.328 7.741-28.981 7.741-17.09 0-29-4.216-29-8 0-.938.785-1.932 2.224-2.882 1.785 4.522 14.347 6.882 26.776 6.882 10.699 0 23.175-1.884 26.273-6h2.727z"/><path d="m42 12.586-10.707 10.707 1.414 1.414 9.293-9.293 4 4 7-7 3.542 3.542 2.832-11.33-11.33 2.832 3.542 3.542-5.586 5.586zm14.626-5.212-1.168 4.67-3.502-3.502z"/><path d="m53 39h-2v-18h-6v18h-2v-16h-6v16h-2v-12h-6v14h30v-24h-6zm-20 0h-2v-10h2zm14-16h2v16h-2zm-8 2h2v14h-2zm16-6h2v20h-2z"/><path d="m27 5h2v2h-2z"/><path d="m31 5h14v2h-14z"/><path d="m27 9h2v2h-2z"/><path d="m31 9h14v2h-14z"/></svg>