<svg id="Layer_5" enable-background="new 0 0 64 64" height="512" viewBox="0 0 64 64" width="512" xmlns="http://www.w3.org/2000/svg"><g><path d="m47 51c-.552 0-1-.449-1-1h-2c0 1.654 1.346 3 3 3v2h2v-2h3v-3c0-1.654-1.346-3-3-3h-2c-.552 0-1-.449-1-1v-1h3c.552 0 1 .449 1 1h2c0-1.654-1.346-3-3-3v-2h-2v2h-3v3c0 1.654 1.346 3 3 3h2c.552 0 1 .449 1 1v1z"/><path d="m48 57c-4.963 0-9-4.038-9-9 0-2.074.724-4.099 2.038-5.701l-1.547-1.269c-1.606 1.959-2.491 4.434-2.491 6.97 0 6.065 4.935 11 11 11 2.535 0 5.01-.885 6.97-2.491l-1.268-1.547c-1.603 1.314-3.628 2.038-5.702 2.038z"/><path d="m48 37c-2.535 0-5.01.885-6.97 2.491l1.268 1.547c1.603-1.314 3.628-2.038 5.702-2.038 4.963 0 9 4.038 9 9 0 2.074-.724 4.099-2.038 5.701l1.547 1.269c1.606-1.959 2.491-4.434 2.491-6.97 0-6.065-4.935-11-11-11z"/><path d="m61.496 35.665c.445-.667.604-1.468.445-2.253-.156-.786-.611-1.464-1.279-1.909-.494-.329-1.069-.503-1.662-.503-1.006 0-1.939.5-2.496 1.336l-1.58 2.371c-.922-.482-1.902-.865-2.923-1.149v-4.558h2v-2h-12.001v2h2v4.558c-1.022.284-2.002.666-2.924 1.149l-1.581-2.37c-.557-.837-1.49-1.337-2.496-1.337-.593 0-1.168.174-1.662.503-.668.445-1.123 1.123-1.279 1.907-.158.787 0 1.587.445 2.254l1.895 2.842c-2.122 2.588-3.398 5.894-3.398 9.494 0 8.271 6.729 15 15 15s15-6.729 15-15c0-3.6-1.276-6.906-3.398-9.494zm-3.328-2.22c.295-.443.938-.575 1.387-.277.226.15.373.37.426.637.053.262 0 .528-.148.75l-1.645 2.467c-.491-.456-1.009-.882-1.557-1.27zm-12.168-4.445h4v4.149c-.656-.088-1.32-.149-2-.149s-1.344.061-2 .149zm-9.981 4.803c.053-.266.2-.485.426-.635.448-.298 1.092-.167 1.387.277l1.538 2.307c-.549.388-1.066.814-1.557 1.27l-1.645-2.468c-.149-.221-.202-.488-.149-.751zm11.981 27.197c-7.168 0-13-5.832-13-13s5.832-13 13-13 13 5.832 13 13-5.832 13-13 13z"/><path d="m50 1v2h9.586l-20.586 20.586-7-7-22.707 22.707 1.414 1.414 21.293-21.293 7 7 22-22v9.586h2v-13z"/><path d="m12 43h-8c-1.654 0-3 1.346-3 3v2c0 .771.301 1.468.78 2-.479.532-.78 1.229-.78 2v2c0 .771.301 1.468.78 2-.479.532-.78 1.229-.78 2v2c0 1.654 1.346 3 3 3h8c1.654 0 3-1.346 3-3v-2c0-.771-.301-1.468-.78-2 .48-.532.78-1.229.78-2v-2c0-.771-.301-1.468-.78-2 .48-.532.78-1.229.78-2v-2c0-1.654-1.346-3-3-3zm-9 3c0-.551.448-1 1-1h1v2h2v-2h2v2h2v-2h1c.552 0 1 .449 1 1v2c0 .551-.448 1-1 1h-8c-.552 0-1-.449-1-1zm10 6v2c0 .551-.448 1-1 1h-8c-.552 0-1-.449-1-1v-2c0-.551.448-1 1-1h1v2h2v-2h2v2h2v-2h1c.552 0 1 .449 1 1zm0 8c0 .551-.448 1-1 1h-8c-.552 0-1-.449-1-1v-2c0-.551.448-1 1-1h1v2h2v-2h2v2h2v-2h1c.552 0 1 .449 1 1z"/><path d="m28 37h-8c-1.654 0-3 1.346-3 3v2c0 .771.301 1.468.78 2-.48.532-.78 1.229-.78 2v2c0 .771.301 1.468.78 2-.48.532-.78 1.229-.78 2v2c0 .771.301 1.468.78 2-.48.532-.78 1.229-.78 2v2c0 1.654 1.346 3 3 3h8c1.654 0 3-1.346 3-3v-2c0-.771-.301-1.468-.78-2 .48-.532.78-1.229.78-2v-2c0-.771-.301-1.468-.78-2 .48-.532.78-1.229.78-2v-2c0-.771-.301-1.468-.78-2 .48-.532.78-1.229.78-2v-2c0-1.654-1.346-3-3-3zm-9 3c0-.551.448-1 1-1h1v2h2v-2h2v2h2v-2h1c.552 0 1 .449 1 1v2c0 .551-.448 1-1 1h-8c-.552 0-1-.449-1-1zm10 6v2c0 .551-.448 1-1 1h-8c-.552 0-1-.449-1-1v-2c0-.551.448-1 1-1h1v2h2v-2h2v2h2v-2h1c.552 0 1 .449 1 1zm0 6v2c0 .551-.448 1-1 1h-8c-.552 0-1-.449-1-1v-2c0-.551.448-1 1-1h1v2h2v-2h2v2h2v-2h1c.552 0 1 .449 1 1zm0 8c0 .551-.448 1-1 1h-8c-.552 0-1-.449-1-1v-2c0-.551.448-1 1-1h1v2h2v-2h2v2h2v-2h1c.552 0 1 .449 1 1z"/><path d="m7 3h-6v6h6zm-2 4h-2v-2h2z"/><path d="m9 3h2v2h-2z"/><path d="m13 3h14v2h-14z"/><path d="m9 7h2v2h-2z"/><path d="m13 7h14v2h-14z"/><path d="m7 11h-6v6h6zm-2 4h-2v-2h2z"/><path d="m9 11h2v2h-2z"/><path d="m13 11h14v2h-14z"/><path d="m9 15h2v2h-2z"/><path d="m13 15h14v2h-14z"/><path d="m7 19h-6v6h6zm-2 4h-2v-2h2z"/><path d="m9 23h12v2h-12z"/><path d="m9 19h12v2h-12z"/></g></svg>