<svg id="Capa_1" enable-background="new 0 0 512 512" height="512" viewBox="0 0 512 512" width="512" xmlns="http://www.w3.org/2000/svg"><g><g><path d="m499.5 45.837h-359.8c-6.893 0-12.5 5.607-12.5 12.5v34.805h-119.7c-4.142 0-7.5 3.358-7.5 7.5s3.358 7.5 7.5 7.5h119.7v24.276h-89.487c-4.142 0-7.5 3.358-7.5 7.5s3.358 7.5 7.5 7.5h89.487v24.277h-59.275c-4.142 0-7.5 3.358-7.5 7.5s3.358 7.5 7.5 7.5h59.275v29.32c-.704-.012-1.406-.027-2.113-.027-68.973.001-125.087 56.114-125.087 125.088 0 68.973 56.114 125.087 125.087 125.087 33.894 0 64.677-13.557 87.227-35.525h225.686c4.142 0 7.5-3.358 7.5-7.5s-3.358-7.5-7.5-7.5h-212.539c15.518-20.836 24.713-46.644 24.713-74.562 0-63.169-47.069-115.542-107.974-123.912v-30.469h76.8c4.142 0 7.5-3.358 7.5-7.5s-3.358-7.5-7.5-7.5h-76.8v-24.277h56.8c4.142 0 7.5-3.358 7.5-7.5s-3.358-7.5-7.5-7.5h-56.8v-24.276h36.002c4.142 0 7.5-3.358 7.5-7.5s-3.358-7.5-7.5-7.5h-36.002v-32.305h136.5v76.019c0 5.79 4.71 10.5 10.5 10.5h60.8c5.79 0 10.5-4.71 10.5-10.5v-22.856c0-4.142-3.358-7.5-7.5-7.5s-7.5 3.358-7.5 7.5v18.356h-51.8v-71.519h51.8v18.163c0 4.142 3.358 7.5 7.5 7.5s7.5-3.358 7.5-7.5v-18.163h136.5v354.8h-24c-4.142 0-7.5 3.358-7.5 7.5s3.358 7.5 7.5 7.5h26.5c6.893 0 12.5-5.607 12.5-12.5v-359.8c0-6.892-5.607-12.5-12.5-12.5zm-264.326 295.239c0 60.702-49.385 110.087-110.087 110.087s-110.087-49.385-110.087-110.087 49.385-110.087 110.087-110.087 110.087 49.385 110.087 110.087z"/><path d="m362.636 344.5c-4.142 0-7.5 3.358-7.5 7.5s3.358 7.5 7.5 7.5h103.364c4.142 0 7.5-3.358 7.5-7.5s-3.358-7.5-7.5-7.5z"/><path d="m362 389.621h103.364c4.142 0 7.5-3.358 7.5-7.5s-3.358-7.5-7.5-7.5h-103.364c-4.142 0-7.5 3.358-7.5 7.5s3.358 7.5 7.5 7.5z"/><path d="m29.512 341.076c0 52.7 42.875 95.575 95.576 95.575 20.816 0 40.617-6.603 57.261-19.095 16.085-12.072 28.19-29.241 34.085-48.345 1.221-3.958-.997-8.157-4.955-9.378-3.956-1.222-8.157.997-9.378 4.955-4.969 16.104-15.182 30.583-28.756 40.771-14.027 10.527-30.714 16.092-48.257 16.092-44.43 0-80.576-36.146-80.576-80.575 0-44.43 36.146-80.576 80.576-80.576 20.036 0 39.254 7.434 54.116 20.933 14.762 13.409 24.008 31.64 26.033 51.334.423 4.121 4.114 7.12 8.228 6.693 4.121-.423 7.117-4.107 6.693-8.228-2.404-23.377-13.367-45.006-30.869-60.904-17.628-16.011-40.429-24.829-64.202-24.829-52.7.001-95.575 42.876-95.575 95.577z"/><path d="m125.087 267.866c-4.142 0-7.5 3.358-7.5 7.5v65.709c0 2.74 1.495 5.262 3.898 6.578 1.125.616 2.364.922 3.602.922 1.408 0 2.812-.396 4.041-1.181l41.773-26.708c3.49-2.231 4.51-6.869 2.279-10.359-2.231-3.491-6.869-4.509-10.359-2.279l-30.233 19.33v-52.013c-.001-4.141-3.359-7.499-7.501-7.499z"/><path d="m473.5 190c0-5.79-4.71-10.5-10.5-10.5h-98c-5.79 0-10.5 4.71-10.5 10.5v128c0 5.79 4.71 10.5 10.5 10.5h98c5.79 0 10.5-4.71 10.5-10.5zm-15 123.5h-89v-119h89z"/><path d="m387.09 243.072c3.136 2.706 7.872 2.356 10.578-.78l8.832-10.238v35.759c0 4.142 3.358 7.5 7.5 7.5s7.5-3.358 7.5-7.5v-35.759l8.832 10.238c1.483 1.72 3.577 2.601 5.682 2.601 1.735 0 3.479-.599 4.896-1.821 3.137-2.706 3.485-7.441.78-10.578l-22.011-25.514c-1.425-1.652-3.498-2.601-5.679-2.601s-4.254.949-5.679 2.601l-22.011 25.514c-2.705 3.136-2.356 7.872.78 10.578z"/><path d="m390.131 303.621h47.737c4.142 0 7.5-3.358 7.5-7.5s-3.358-7.5-7.5-7.5h-47.737c-4.142 0-7.5 3.358-7.5 7.5s3.358 7.5 7.5 7.5z"/></g></g></svg>