<svg id="Layer_1" enable-background="new 0 0 512 512" height="512" viewBox="0 0 512 512" width="512" xmlns="http://www.w3.org/2000/svg"><g><path d="m473.01 82.392c-16.66-16.37-27.83-35.991-34.27-49.561-3.671-7.71-6.221-14.32-7.721-18.51-.66-1.85-2.29-6.99-2.29-6.99-.939-3.37-3.5-5.96-6.87-6.94-3.3-.95-6.96-.1-9.51 2.22 0 0-.01.02-.06.06-.11.1-10.79 9.71-25.08 18.781-7.82 4.96-15.311 8.89-22.25 11.66-7.96 3.2-15.41 4.89-21.57 4.89h-.2c-16.92 0-33.74-3.06-47.38-8.62-14.41-5.84-25.2-14.31-31.21-24.48-1.819-3.07-5.04-4.9-8.6-4.9s-6.78 1.83-8.6 4.9c-5.97 10.131-16.91 18.59-31.63 24.47-13.88 5.56-30.89 8.63-47.89 8.63h-.21c-6.33 0-13.99-1.79-22.13-5.179-12.42-5.11-24.22-13.06-31.941-18.82-4.42-3.28-13.86-11.31-13.88-11.32-1.851-1.733-4.271-2.683-6.811-2.683-1.11 0-2.2.18-3.26.55-3.49 1.2-6.02 4.22-6.61 7.86l-.01.06c-.43 2.17-2.27 10.24-8.12 22.52-8.27 17.34-20.46 34.74-36.23 51.721-2.09 2.24-3.04 5.38-2.55 8.4.48 3.02 2.37 5.7 5.05 7.171 20.96 11.59 34.65 26.57 41.861 45.811 2.12 5.71 3.19 11.75 3.19 17.93.01 13.16-4.99 26.081-13.73 35.461-9.05 9.67-16.43 20.721-21.921 32.821-7.28 16.02-10.96 33.41-10.95 51.701-.01 15.88 4.46 31.481 13.3 46.371 13.29 22.36 33.781 39.231 48.041 49.981 10.39 7.8 20.62 14.59 29.64 20.57 6.38 4.24 11.9 7.901 16.29 11.131 6.42 4.71 16.05 13.06 27.85 24.16 17.03 15.991 36.23 35.431 49.34 48.921 7.45 7.671 13.75 14.25 17.72 18.421 3.56 3.74 5.88 6.21 6.65 7.02.23.24.25.26.25.26 1.88 2.01 4.54 3.16 7.29 3.16s5.41-1.15 7.28-3.15c.01 0 .01 0 .17-.18.38-.4 1.409-1.5 3.01-3.19 6.979-7.361 25.35-26.641 45.35-46.571 11.09-11.05 21.01-20.63 29.49-28.481 9.9-9.16 18.13-16.21 23.8-20.37 4.401-3.24 9.91-6.901 16.3-11.131 11-7.3 24.691-16.38 37.74-26.87 11.811-9.55 21.25-18.691 28.84-27.951 4.5-5.47 8.42-11.09 11.66-16.71 3.53-6.12 6.38-12.44 8.47-18.8.83-2.54.62-5.25-.59-7.63-1.22-2.38-3.279-4.14-5.819-4.97-1.011-.33-2.051-.5-3.101-.5-4.34 0-8.16 2.78-9.51 6.91-5.75 17.881-20.05 36.071-42.5 54.071-11.981 9.66-24.6 18.04-35.731 25.43-6.44 4.28-12.529 8.33-17.59 12.031-7.27 5.35-16.989 13.76-29.72 25.7-24.52 23.04-52.83 52.361-67.55 67.822-7.75-8.14-19.8-20.681-33.23-34.231-12.89-13-24.441-24.31-34.321-33.591-12.73-11.94-22.45-20.35-29.71-25.7-5.04-3.69-25.07-16.98-29.08-19.71-14.83-10.07-33.65-23.71-47.75-39.941-14.99-17.281-22.27-34.381-22.28-52.281.03-34.061 14.97-57.351 27.51-70.901 6.14-6.61 10.921-14.287 14.21-22.807 2.28-5.91 3.75-12.297 4.431-18.297h299.716c.739 6 2.192 11.849 4.375 17.487 3.34 8.64 8.21 16.369 14.47 22.969 4.24 4.47 8.1 9.349 11.46 14.489 1.86 2.84 4.99 4.53 8.38 4.53 1.94 0 3.83-.56 5.47-1.63 4.61-3.02 5.91-9.22 2.9-13.83 0 0 0-.01-.01-.01-4.021-6.15-8.63-11.98-13.69-17.32-8.859-9.31-13.93-22.36-13.93-35.811 0-4.82.64-9.6 1.9-14.19 2.711-9.9 7.171-18.701 13.261-26.17 7.56-9.25 17.34-16.381 29.88-21.81 3.06-1.32 5.26-4.06 5.87-7.341.61-3.283-.439-6.633-2.819-8.973zm-48.43 25.48c-7.87 9.65-13.61 20.934-17.05 33.524-.774 2.825-1.367 5.604-1.798 8.604h-300.518c-.739-4-1.872-8.676-3.417-12.854-3.37-9.18-8.19-17.872-14.35-25.832-7.02-9.08-15.78-17.181-26.01-24.091 21.06-24.741 31.6-46.171 36.73-59.822 4.58 3.55 9.26 6.9 13.92 9.96 8.93 5.86 17.61 10.55 25.8 13.941 10.9 4.49 20.671 6.68 29.881 6.7 19.8-.01 38.97-3.49 55.43-10.07 13.47-5.4 24.5-12.6 32.781-21.42 8.21 8.83 19.08 16.03 32.301 21.4 16.25 6.59 35.27 10.08 55.01 10.09 9.2-.02 19.01-2.2 29.99-6.68 16.439-6.79 31.4-17.06 41.07-24.491 1.91 4.86 4.04 9.77 6.33 14.59 8.14 17.091 17.88 32.301 28.95 45.191-9.87 5.81-18.291 12.96-25.05 21.26z"/><path d="m325 346.497c5.522 0 10-4.477 10-10v-114.002c0-5.523-3.979-10.494-9.501-10.494h-30c-5.523 0-10 4.477-10 10s4.478 10 10 10h19.501v104.497c0 5.522 4.477 9.999 10 9.999z"/><path d="m197.692 345.715c1.266.532 2.58.784 3.872.784 3.905 0 7.615-2.299 9.223-6.125l20.339-48.374h18.373c5.523 0 10-4.477 10-10s-4.477-10-10-10h-9.964l19.182-45.628c1.298-3.087.964-6.868-.89-9.658-1.853-2.79-4.98-4.715-8.329-4.715h-63c-5.523 0-10 4.477-10 10s4.477 10 10 10h47.948l-16.607 40h-21.341c-5.523 0-10 4.477-10 10s4.477 10 10 10h12.932l-17.08 40.623c-2.141 5.092.251 10.953 5.342 13.093z"/><circle cx="460.832" cy="261.045" r="10"/></g></svg>