<svg id="Capa_1" enable-background="new 0 0 512 512" height="512" viewBox="0 0 512 512" width="512" xmlns="http://www.w3.org/2000/svg"><g><path d="m452.951 270.563h-211.475v-211.386c0-5.523-4.477-10-10-10-61.829 0-119.957 24.068-163.677 67.77-43.721 43.703-67.799 101.81-67.799 163.616 0 61.807 24.078 119.914 67.799 163.617 43.72 43.702 101.848 67.77 163.677 67.77s119.957-24.068 163.676-67.77c43.721-43.703 67.799-101.81 67.799-163.616 0-5.523-4.477-10.001-10-10.001zm-432.951 10c0-113.208 89.493-205.916 201.476-211.153v422.306c-111.983-5.237-201.476-97.945-201.476-211.153zm221.476 211.153v-28.263l107.81-107.853c3.905-3.906 3.903-10.238-.002-14.142-3.907-3.906-10.238-3.903-14.142.002l-93.666 93.703v-144.6h73.143l-51.568 51.588c-3.904 3.906-3.903 10.238.003 14.142 1.953 1.952 4.511 2.928 7.07 2.928 2.56 0 5.12-.977 7.073-2.93l65.701-65.728h99.819c-.253 5.412-.712 10.772-1.367 16.071l-117.842 117.89c-3.905 3.906-3.903 10.238.002 14.143 1.953 1.952 4.511 2.927 7.07 2.927 2.56 0 5.12-.977 7.072-2.93l96-96.039c-25.649 83.323-101.546 144.853-192.176 149.091z"/><path d="m447.299 64.724c-41.722-41.705-97.194-64.674-156.197-64.674-5.523 0-10 4.477-10 10v210.814c0 5.523 4.477 10 10 10h210.898c5.523 0 10-4.477 10-10 0-58.982-22.978-114.434-64.701-156.14zm-146.197 146.14v-190.568c102.834 5.064 185.586 87.777 190.652 190.568z"/></g></svg>