<svg id="Capa_1" enable-background="new 0 0 512 512" height="512" viewBox="0 0 512 512" width="512" xmlns="http://www.w3.org/2000/svg"><g><path d="m491.961 160.693h-121.494c.081-1.76.127-3.528.127-5.308 0-63.188-51.407-114.595-114.594-114.595s-114.594 51.407-114.594 114.595c0 1.779.047 3.548.127 5.308h-121.494c-11.049 0-20.039 8.99-20.039 20.039v270.438c0 11.049 8.99 20.039 20.039 20.039h191.043c5.534 0 10.02-4.486 10.02-10.02s-4.486-10.02-10.02-10.02h-170.896l158.966-139.328 46.058 29.431c3.278 2.095 7.034 3.142 10.791 3.142 3.756 0 7.513-1.047 10.791-3.141l48.247-30.83 160.56 140.727h-174.681c-5.534 0-10.02 4.486-10.02 10.02s4.486 10.02 10.02 10.02h191.043c11.049 0 20.039-8.99 20.039-20.039v-270.439c0-11.049-8.99-20.039-20.039-20.039zm-235.961-99.863c52.138 0 94.555 42.417 94.555 94.556 0 52.138-42.417 94.555-94.555 94.555s-94.555-42.417-94.555-94.555c0-52.139 42.417-94.556 94.555-94.556zm-235.961 381.352v-244.793l161.529 103.217zm235.961-117.795-224.812-143.655h113.048c11.567 51.031 57.284 89.248 111.764 89.248s100.197-38.216 111.764-89.248h113.048zm235.961-126.998v241.476l-159.34-139.658z"/><circle cx="256" cy="461.194" r="10"/><path d="m258.24 193.421c5.534 0 10.02-4.486 10.02-10.02v-60.831c0-5.534-4.486-10.02-10.02-10.02s-10.02 4.486-10.02 10.02v60.831c0 5.534 4.486 10.02 10.02 10.02z"/><path d="m237.777 183.401c0-5.534-4.486-10.02-10.02-10.02h-22.094l29.544-45.342c2.007-3.08 2.166-7.012.414-10.244s-5.133-5.246-8.809-5.246h-38.389c-5.534 0-10.02 4.486-10.02 10.02s4.486 10.02 10.02 10.02h19.902l-29.544 45.342c-2.007 3.08-2.166 7.012-.414 10.244s5.133 5.246 8.809 5.246h40.581c5.534 0 10.02-4.486 10.02-10.02z"/><path d="m290.383 193.421c5.534 0 10.02-4.486 10.02-10.02v-16.478h6.919c15.176 0 27.522-12.196 27.522-27.186s-12.346-27.186-27.522-27.186h-16.938c-5.534 0-10.02 4.486-10.02 10.02v60.832c-.001 5.532 4.485 10.018 10.019 10.018zm10.019-60.832h6.919c4.056 0 7.483 3.273 7.483 7.147s-3.427 7.147-7.483 7.147h-6.919z"/></g></svg>